<svg width="16" height="16" viewBox="0 0 16 16" fill="none" xmlns="http://www.w3.org/2000/svg">
<path d="M13.5 1.47V3H14.03C14.29 3 14.5 3.1645 14.5 3.368V5.108C14.797 5.265 15 5.578 15 5.94V14.065C15 14.58 14.58 15 14.06 15H1.94C1.42 15 1 14.58 1 14.06V5.94C1 5.522 1.2715 5.1685 1.648 5.046C1.78493 4.73515 2.00925 4.4708 2.29367 4.2851C2.57808 4.09939 2.91033 4.00035 3.25 4C3.48295 3.99988 3.71356 4.04641 3.92825 4.13683C4.14293 4.22726 4.33734 4.35975 4.5 4.5265V3.368C4.5 3.165 4.71 3 4.97 3H5.5V1.47C5.5 1.21 5.71 1 5.97 1H13.03C13.29 1 13.5 1.21 13.5 1.47ZM13 4.5V1.5H6V4.5H13ZM4.5 5.75C4.5 5.061 3.939 4.5 3.25 4.5C2.91864 4.50053 2.60101 4.63239 2.3667 4.8667C2.13239 5.10101 2.00053 5.41864 2 5.75V12.75C2 13.439 2.561 14 3.25 14C3.939 14 4.5 13.439 4.5 12.75V5.75ZM6.75 6C6.335 6 6 6.335 6 6.75C6 7.165 6.335 7.5 6.75 7.5H10.75C11.165 7.5 11.5 7.165 11.5 6.75C11.5 6.335 11.165 6 10.75 6H6.75ZM12.5 6.75C12.5 7.165 12.835 7.5 13.25 7.5C13.665 7.5 14 7.165 14 6.75C14 6.335 13.665 6 13.25 6C12.835 6 12.5 6.335 12.5 6.75ZM6.75 10C7.165 10 7.5 9.665 7.5 9.25C7.5 8.835 7.165 8.5 6.75 8.5C6.335 8.5 6 8.835 6 9.25C6 9.665 6.335 10 6.75 10ZM8.75 10C9.165 10 9.5 9.665 9.5 9.25C9.5 8.835 9.165 8.5 8.75 8.5C8.335 8.5 8 8.835 8 9.25C8 9.665 8.335 10 8.75 10ZM10 9.25C10 9.665 10.335 10 10.75 10C11.165 10 11.5 9.665 11.5 9.25C11.5 8.835 11.165 8.5 10.75 8.5C10.335 8.5 10 8.835 10 9.25ZM6.75 12C7.165 12 7.5 11.665 7.5 11.25C7.5 10.835 7.165 10.5 6.75 10.5C6.335 10.5 6 10.835 6 11.25C6 11.665 6.335 12 6.75 12ZM8 11.25C8 11.665 8.335 12 8.75 12C9.165 12 9.5 11.665 9.5 11.25C9.5 10.835 9.165 10.5 8.75 10.5C8.335 10.5 8 10.835 8 11.25ZM10.75 12C11.165 12 11.5 11.665 11.5 11.25C11.5 10.835 11.165 10.5 10.75 10.5C10.335 10.5 10 10.835 10 11.25C10 11.665 10.335 12 10.75 12ZM6 13.25C6 13.665 6.335 14 6.75 14C7.165 14 7.5 13.665 7.5 13.25C7.5 12.835 7.165 12.5 6.75 12.5C6.335 12.5 6 12.835 6 13.25ZM8.75 14C9.165 14 9.5 13.665 9.5 13.25C9.5 12.835 9.165 12.5 8.75 12.5C8.335 12.5 8 12.835 8 13.25C8 13.665 8.335 14 8.75 14ZM10 13.25C10 13.665 10.335 14 10.75 14C11.165 14 11.5 13.665 11.5 13.25C11.5 12.835 11.165 12.5 10.75 12.5C10.335 12.5 10 12.835 10 13.25ZM12.75 9H13.75C13.89 9 14 8.89 14 8.75C14 8.61 13.89 8.5 13.75 8.5H12.75C12.61 8.5 12.5 8.61 12.5 8.75C12.5 8.89 12.61 9 12.75 9ZM12.75 10H13.75C13.89 10 14 9.89 14 9.75C14 9.61 13.89 9.5 13.75 9.5H12.75C12.61 9.5 12.5 9.61 12.5 9.75C12.5 9.89 12.61 10 12.75 10ZM13.75 11C13.89 11 14 10.89 14 10.75C14 10.61 13.89 10.5 13.75 10.5H12.75C12.61 10.5 12.5 10.61 12.5 10.75C12.5 10.89 12.61 11 12.75 11H13.75ZM12.75 12H13.75C13.89 12 14 11.89 14 11.75C14 11.61 13.89 11.5 13.75 11.5H12.75C12.61 11.5 12.5 11.61 12.5 11.75C12.5 11.89 12.61 12 12.75 12ZM13.75 13C13.89 13 14 12.89 14 12.75C14 12.61 13.89 12.5 13.75 12.5H12.75C12.61 12.5 12.5 12.61 12.5 12.75C12.5 12.89 12.61 13 12.75 13H13.75ZM12.75 14H13.75C13.89 14 14 13.89 14 13.75C14 13.61 13.89 13.5 13.75 13.5H12.75C12.61 13.5 12.5 13.61 12.5 13.75C12.5 13.89 12.61 14 12.75 14Z" fill="white"/>
</svg>