
<svg width="16" height="16" viewBox="0 0 16 16" fill="none" xmlns="http://www.w3.org/2000/svg">
<g clip-path="url(#clip0_218_4)">
<path fill-rule="evenodd" clip-rule="evenodd" d="M11.0345 14.7553C10.0745 14.72 7.35384 14.344 4.5045 11.4953C1.65584 8.64601 1.2805 5.92601 1.2445 4.96534C1.19117 3.50134 2.3125 2.07934 3.60784 1.52401C3.76382 1.45665 3.93464 1.43101 4.10352 1.44959C4.27241 1.46817 4.43356 1.53035 4.57117 1.63001C5.63784 2.40734 6.37384 3.58334 7.00584 4.50801C7.14489 4.71116 7.20435 4.95837 7.17288 5.20254C7.1414 5.4467 7.0212 5.67076 6.83517 5.83201L5.5345 6.79801C5.47167 6.84338 5.42743 6.91003 5.41002 6.98556C5.39261 7.06108 5.4032 7.14037 5.43984 7.20867C5.7345 7.74401 6.2585 8.54134 6.8585 9.14134C7.45917 9.74134 8.29384 10.3 8.8665 10.628C8.93831 10.6683 9.02282 10.6796 9.10267 10.6595C9.18253 10.6394 9.25165 10.5895 9.29584 10.52L10.1425 9.23134C10.2982 9.02457 10.5278 8.88605 10.7833 8.84479C11.0388 8.80354 11.3003 8.86274 11.5132 9.01001C12.4512 9.65934 13.5458 10.3827 14.3472 11.4087C14.4549 11.5473 14.5235 11.7123 14.5456 11.8864C14.5678 12.0606 14.5428 12.2375 14.4732 12.3987C13.9152 13.7007 12.5032 14.8093 11.0345 14.7553Z" fill="white"/>
</g>
<defs>
<clipPath id="clip0_218_4">
<rect width="16" height="16" fill="white"/>
</clipPath>
</defs>
</svg>
